<svg width="100" height="70" viewBox="0 0 100 70" fill="none" xmlns="http://www.w3.org/2000/svg">
<g clip-path="url(#clip0_5444_3327)">
<path d="M49.9986 67.5508C49.9986 67.5508 88.5802 67.5125 91.647 67.5508C94.7138 67.5892 97.3151 66.5432 97.7806 61.7787C98.2461 57.0141 92.9668 55.5191 92.9668 55.5191L49.9986 35.0098L7.03037 55.5191C7.03037 55.5191 1.75107 57.0196 2.21657 61.7787C2.68207 66.5377 5.28338 67.5892 8.35019 67.5508C11.417 67.5125 49.9986 67.5508 49.9986 67.5508Z" stroke="white" stroke-width="3" stroke-linecap="round" stroke-linejoin="round"/>
<path d="M49.9992 35.0113V24.7812C49.9992 24.7812 61.7517 24.8579 62.2172 14.2226C62.6827 3.58738 53.526 2.19089 51.9707 2.19089C50.4154 2.19089 40.0156 1.4899 40.0156 13.8338" stroke="white" stroke-width="3" stroke-linecap="round" stroke-linejoin="round"/>
</g>
<defs>
<clipPath id="clip0_5444_3327">
<rect width="100" height="70" fill="white"/>
</clipPath>
</defs>
</svg>
