<svg width="100" height="100" viewBox="0 0 100 100" fill="none" xmlns="http://www.w3.org/2000/svg">
<g clip-path="url(#clip0_5444_3279)">
<path d="M50.0026 54.6673C52.5799 54.6673 54.6693 52.578 54.6693 50.0007C54.6693 47.4233 52.5799 45.334 50.0026 45.334C47.4253 45.334 45.3359 47.4233 45.3359 50.0007C45.3359 52.578 47.4253 54.6673 50.0026 54.6673Z" stroke="white" stroke-width="3" stroke-linecap="round" stroke-linejoin="round"/>
<path d="M49.9989 41.4177C50.8655 41.4177 51.5681 40.7151 51.5681 39.8485C51.5681 38.9819 50.8655 38.2793 49.9989 38.2793C49.1322 38.2793 48.4297 38.9819 48.4297 39.8485C48.4297 40.7151 49.1322 41.4177 49.9989 41.4177Z" fill="white"/>
<path d="M59.5458 48.3396C60.4124 48.3396 61.115 47.637 61.115 46.7704C61.115 45.9037 60.4124 45.2012 59.5458 45.2012C58.6791 45.2012 57.9766 45.9037 57.9766 46.7704C57.9766 47.637 58.6791 48.3396 59.5458 48.3396Z" fill="white"/>
<path d="M40.4364 48.3396C41.303 48.3396 42.0056 47.637 42.0056 46.7704C42.0056 45.9037 41.303 45.2012 40.4364 45.2012C39.5697 45.2012 38.8672 45.9037 38.8672 46.7704C38.8672 47.637 39.5697 48.3396 40.4364 48.3396Z" fill="white"/>
<path d="M55.9676 59.4978C56.8343 59.4978 57.5368 58.7952 57.5368 57.9286C57.5368 57.0619 56.8343 56.3594 55.9676 56.3594C55.101 56.3594 54.3984 57.0619 54.3984 57.9286C54.3984 58.7952 55.101 59.4978 55.9676 59.4978Z" fill="white"/>
<path d="M44.0301 59.4978C44.8968 59.4978 45.5993 58.7952 45.5993 57.9286C45.5993 57.0619 44.8968 56.3594 44.0301 56.3594C43.1635 56.3594 42.4609 57.0619 42.4609 57.9286C42.4609 58.7952 43.1635 59.4978 44.0301 59.4978Z" fill="white"/>
<path d="M32.9675 21.3372C37.9514 18.3684 43.7754 16.666 49.9974 16.666C68.4075 16.666 83.3307 31.5893 83.3307 49.9993C83.3307 68.4094 68.4075 83.3327 49.9974 83.3327C31.5873 83.3327 16.6641 68.4094 16.6641 49.9993C16.6641 40.0379 21.0321 31.0997 27.9584 24.9915" stroke="white" stroke-width="3" stroke-linecap="round" stroke-linejoin="round"/>
<path d="M49.9978 97.9956C76.5063 97.9956 97.9956 76.5063 97.9956 49.9978C97.9956 23.4894 76.5063 2 49.9978 2C23.4894 2 2 23.4894 2 49.9978C2 76.5063 23.4894 97.9956 49.9978 97.9956Z" stroke="white" stroke-width="3" stroke-linecap="round" stroke-linejoin="round"/>
<path d="M50 2V8.14418" stroke="white" stroke-width="3" stroke-linecap="round" stroke-linejoin="round"/>
<path d="M50 91.8516V97.9989" stroke="white" stroke-width="3" stroke-linecap="round" stroke-linejoin="round"/>
<path d="M97.9989 49.998H91.8516" stroke="white" stroke-width="3" stroke-linecap="round" stroke-linejoin="round"/>
<path d="M8.14418 49.998H2" stroke="white" stroke-width="3" stroke-linecap="round" stroke-linejoin="round"/>
<path d="M64.6833 4.29883L62.8047 10.1525" stroke="white" stroke-width="3" stroke-linecap="round" stroke-linejoin="round"/>
<path d="M37.1989 89.8477L35.3203 95.6982" stroke="white" stroke-width="3" stroke-linecap="round" stroke-linejoin="round"/>
<path d="M95.6943 64.6794L89.8438 62.8008" stroke="white" stroke-width="3" stroke-linecap="round" stroke-linejoin="round"/>
<path d="M10.1506 37.197L4.29688 35.3184" stroke="white" stroke-width="3" stroke-linecap="round" stroke-linejoin="round"/>
<path d="M78.043 11.0449L74.4531 16.0335" stroke="white" stroke-width="3" stroke-linecap="round" stroke-linejoin="round"/>
<path d="M25.543 83.9629L21.9531 88.9515" stroke="white" stroke-width="3" stroke-linecap="round" stroke-linejoin="round"/>
<path d="M88.9573 78.043L83.9688 74.4531" stroke="white" stroke-width="3" stroke-linecap="round" stroke-linejoin="round"/>
<path d="M16.0355 25.543L11.0469 21.9531" stroke="white" stroke-width="3" stroke-linecap="round" stroke-linejoin="round"/>
<path d="M88.9088 21.8906L83.9297 25.49" stroke="white" stroke-width="3" stroke-linecap="round" stroke-linejoin="round"/>
<path d="M16.076 74.5078L11.0938 78.1072" stroke="white" stroke-width="3" stroke-linecap="round" stroke-linejoin="round"/>
<path d="M78.1072 88.9069L74.5078 83.9277" stroke="white" stroke-width="3" stroke-linecap="round" stroke-linejoin="round"/>
<path d="M25.49 16.0741L21.8906 11.0918" stroke="white" stroke-width="3" stroke-linecap="round" stroke-linejoin="round"/>
<path d="M95.5691 34.9316L89.7344 36.8608" stroke="white" stroke-width="3" stroke-linecap="round" stroke-linejoin="round"/>
<path d="M10.2566 63.1348L4.42188 65.0671" stroke="white" stroke-width="3" stroke-linecap="round" stroke-linejoin="round"/>
<path d="M65.0651 95.5691L63.1328 89.7344" stroke="white" stroke-width="3" stroke-linecap="round" stroke-linejoin="round"/>
<path d="M36.8588 10.2586L34.9297 4.42383" stroke="white" stroke-width="3" stroke-linecap="round" stroke-linejoin="round"/>
<path d="M49.9977 63.129C43.7967 62.9491 37.4126 74.4986 37.4062 74.5081C37.6209 74.6186 37.8356 74.7259 38.0503 74.8301C38.0503 74.8301 41.6876 77.2676 49.9945 77.2676C58.3015 77.2676 61.9388 74.8301 61.9388 74.8301C62.1566 74.7259 62.3713 74.6186 62.5828 74.5081C62.5797 74.5018 56.1956 63.3058 49.9945 63.129H49.9977Z" stroke="white" stroke-width="3" stroke-linejoin="round"/>
<path d="M37.4047 53.9754C35.6777 48.0175 22.7294 45.4758 22.7168 45.4727C22.6789 45.7095 22.641 45.9463 22.6063 46.1862C22.6063 46.1862 21.4002 50.3981 23.9418 58.3041C26.4835 66.21 29.9218 68.9285 29.9218 68.9285C30.0892 69.1022 30.2565 69.2758 30.427 69.4432C30.4302 69.4368 39.1349 59.9333 37.4047 53.9722V53.9754Z" stroke="white" stroke-width="3" stroke-linejoin="round"/>
<path d="M62.6455 53.9736C60.5238 59.8021 69.478 69.4951 69.4843 69.5046C69.6548 69.3372 69.8253 69.1667 69.9926 68.9931C69.9926 68.9931 73.4531 66.3062 76.0674 58.4223C78.6816 50.5384 77.5103 46.3171 77.5103 46.3171C77.4787 46.0771 77.444 45.8403 77.4061 45.6035C77.3998 45.6035 64.7641 48.142 62.6424 53.9736H62.6455Z" stroke="white" stroke-width="3" stroke-linejoin="round"/>
<path d="M57.785 39.4324C62.6694 43.256 74.6609 37.7496 74.6704 37.7464C74.5631 37.5317 74.4557 37.317 74.3421 37.1055C74.3421 37.1055 72.8613 32.982 66.1772 28.0534C59.4931 23.1248 55.117 22.9259 55.117 22.9259C54.8802 22.8817 54.6434 22.8406 54.4066 22.8027C54.4066 22.809 52.9006 35.6089 57.785 39.4324V39.4324Z" stroke="white" stroke-width="3" stroke-linejoin="round"/>
<path d="M42.1788 39.2946C47.3442 35.8626 45.8919 22.747 45.8919 22.7344C45.6551 22.7691 45.4151 22.8038 45.1783 22.8449C45.1783 22.8449 40.7991 22.9522 34.0171 27.7482C27.2352 32.5411 25.6691 36.633 25.6691 36.633C25.5523 36.8445 25.4386 37.0561 25.3281 37.2676C25.3344 37.2676 37.0103 42.7266 42.1788 39.2946Z" stroke="white" stroke-width="3" stroke-linejoin="round"/>
</g>
<defs>
<clipPath id="clip0_5444_3279">
<rect width="100" height="100" fill="white"/>
</clipPath>
</defs>
</svg>
