<svg width="100" height="100" viewBox="0 0 100 100" fill="none" xmlns="http://www.w3.org/2000/svg">
<path d="M82.7529 24.666H17.2418C9.19075 24.666 2.66406 31.1936 2.66406 39.2457V82.0863C2.66406 90.1385 9.19075 96.666 17.2418 96.666H82.7529C90.804 96.666 97.3307 90.1385 97.3307 82.0863V39.2457C97.3307 31.1936 90.804 24.666 82.7529 24.666Z" stroke="white" stroke-width="3" stroke-linecap="round" stroke-linejoin="round"/>
<path d="M39.2135 12.666H60.7813C63.2903 12.666 65.3307 14.6357 65.3307 17.0647V24.666H34.6641V17.0647C34.6641 14.6388 36.7013 12.666 39.2135 12.666V12.666Z" stroke="white" stroke-width="3" stroke-linecap="round" stroke-linejoin="round"/>
<path d="M51.9175 4H38.7492C31.7079 4 26 9.61818 26 16.5487V24.6667H73.3333V16.5487C73.3333 9.61818 67.6254 4 60.5841 4H58.5143" stroke="white" stroke-width="3" stroke-linecap="round" stroke-linejoin="round"/>
<path d="M19.9974 24.666V19.0898C19.9974 19.0898 19.6627 16.666 17.3111 16.666H15.3504C12.9987 16.666 12.6641 19.0898 12.6641 19.0898V25.3327" stroke="white" stroke-width="3" stroke-linecap="round" stroke-linejoin="round"/>
<path d="M79.3359 24.664V19.0467C79.3359 19.0467 79.701 16.666 82.2665 16.666H84.4054C86.9708 16.666 87.3359 19.0467 87.3359 19.0467V25.3327" stroke="white" stroke-width="3" stroke-linecap="round" stroke-linejoin="round"/>
</svg>
