<svg width="100" height="100" viewBox="0 0 100 100" fill="none" xmlns="http://www.w3.org/2000/svg">
<path d="M92.6667 68.666H50V82.666H92.6667" stroke="white" stroke-width="3" stroke-linecap="round" stroke-linejoin="round"/>
<path d="M2.66406 98H71.9974" stroke="white" stroke-width="3" stroke-linecap="round" stroke-linejoin="round"/>
<path d="M77.3359 98H97.3359" stroke="white" stroke-width="3" stroke-linecap="round" stroke-linejoin="round"/>
<path d="M92.6667 97.9993V58.666H64" stroke="white" stroke-width="3" stroke-linecap="round" stroke-linejoin="round"/>
<path d="M58.0026 58.666H31.3359V69.3327" stroke="white" stroke-width="3" stroke-linecap="round" stroke-linejoin="round"/>
<path d="M78.6641 82.666V74.666" stroke="white" stroke-width="3" stroke-linecap="round" stroke-linejoin="round"/>
<path d="M64 82.666V74.666" stroke="white" stroke-width="3" stroke-linecap="round" stroke-linejoin="round"/>
<path d="M6.66406 98.0006V17.334L15.3307 19.4777" stroke="white" stroke-width="3" stroke-linecap="round" stroke-linejoin="round"/>
<path d="M66 29.334L76.6667 31.7077V52.0006" stroke="white" stroke-width="3" stroke-linecap="round" stroke-linejoin="round"/>
<path d="M32.6641 98.0007V87.334" stroke="white" stroke-width="3" stroke-linecap="round" stroke-linejoin="round"/>
<path d="M36.2172 97.9993C36.2172 97.9993 39.5261 97.0064 39.3216 94.5114C39.1171 92.0164 36.4929 78.1857 35.1359 76.1681C34.4109 75.0925 32.9207 74.666 31.9974 74.666C31.0741 74.666 29.5839 75.0956 28.8589 76.1681C27.4988 78.1826 24.8776 92.0164 24.6732 94.5114C24.4687 97.0064 27.7776 97.9993 27.7776 97.9993" stroke="white" stroke-width="3" stroke-linecap="round" stroke-linejoin="round"/>
<path d="M41.6693 30.0007C45.1671 30.0007 48.0026 27.1651 48.0026 23.6673C48.0026 20.1695 45.1671 17.334 41.6693 17.334C38.1715 17.334 35.3359 20.1695 35.3359 23.6673C35.3359 27.1651 38.1715 30.0007 41.6693 30.0007Z" stroke="white" stroke-width="3" stroke-linecap="round" stroke-linejoin="round"/>
</svg>
