<svg width="48" height="48" viewBox="0 0 48 48" fill="none" xmlns="http://www.w3.org/2000/svg">
<g clip-path="url(#clip0_6050_5509)">
<path d="M0 35.9993C0 37.4138 0.561903 38.7704 1.5621 39.7706C2.56229 40.7708 3.91885 41.3327 5.33333 41.3327H42.6667C44.0812 41.3327 45.4377 40.7708 46.4379 39.7706C47.4381 38.7704 48 37.4138 48 35.9993V30.666H0V35.9993Z" fill="#FFCD05"/>
<path d="M0 18.666H48V30.666H0V18.666Z" fill="#ED1F24"/>
<path d="M42.6667 6.66602H5.33333C3.91885 6.66602 2.56229 7.22792 1.5621 8.22811C0.561903 9.22831 0 10.5849 0 11.9993L0 18.666H48V11.9993C48 10.5849 47.4381 9.22831 46.4379 8.22811C45.4377 7.22792 44.0812 6.66602 42.6667 6.66602V6.66602Z" fill="#141414"/>
</g>
<defs>
<clipPath id="clip0_6050_5509">
<rect width="48" height="48" fill="white"/>
</clipPath>
</defs>
</svg>
