<svg width="48" height="48" viewBox="0 0 48 48" fill="none" xmlns="http://www.w3.org/2000/svg">
<g clip-path="url(#clip0_6050_5532)">
<path d="M0 36.0007C0 37.4151 0.561903 38.7717 1.5621 39.7719C2.56229 40.7721 3.91885 41.334 5.33333 41.334H42.6667C44.0812 41.334 45.4377 40.7721 46.4379 39.7719C47.4381 38.7717 48 37.4151 48 36.0007V29.334H0V36.0007Z" fill="#138808"/>
<path d="M48 18.666V11.9993C48 10.5849 47.4381 9.22831 46.4379 8.22811C45.4377 7.22792 44.0812 6.66602 42.6667 6.66602H5.33333C3.91885 6.66602 2.56229 7.22792 1.5621 8.22811C0.561903 9.22831 0 10.5849 0 11.9993L0 18.666H48Z" fill="#FF9933"/>
<path d="M0 18.2227H48V29.7787H0V18.2227Z" fill="#F7F7F7"/>
<path d="M23.9974 29.3327C26.9429 29.3327 29.3307 26.9449 29.3307 23.9993C29.3307 21.0538 26.9429 18.666 23.9974 18.666C21.0519 18.666 18.6641 21.0538 18.6641 23.9993C18.6641 26.9449 21.0519 29.3327 23.9974 29.3327Z" fill="#000080"/>
<path d="M24 28.5C26.4853 28.5 28.5 26.4853 28.5 24C28.5 21.5147 26.4853 19.5 24 19.5C21.5147 19.5 19.5 21.5147 19.5 24C19.5 26.4853 21.5147 28.5 24 28.5Z" fill="#F7F7F7"/>
<path d="M24.1344 22.3324L24.001 23.1991L23.8677 22.3324L24.001 19.7324L24.1344 22.3324ZM22.897 19.8778L23.441 22.4231L23.7944 23.2258L23.6984 22.3551L22.897 19.8778ZM21.8677 20.3044L23.0517 22.6218L23.601 23.3058L23.2837 22.4884L21.8677 20.3044ZM20.9837 20.9818L22.7277 22.9151L23.4357 23.4338L22.917 22.7258L20.9837 20.9818ZM20.3064 21.8658L22.4904 23.2818L23.3077 23.5991L22.6237 23.0498L20.3064 21.8658ZM19.8797 22.8951L22.357 23.6964L23.2277 23.7924L22.425 23.4391L19.8797 22.8951ZM19.7344 23.9991L22.3344 24.1324L23.201 23.9991L22.3344 23.8658L19.7344 23.9991ZM19.8797 25.1031L22.425 24.5591L23.2277 24.2058L22.357 24.3018L19.8797 25.1031ZM20.3064 26.1324L22.6237 24.9484L23.3077 24.3991L22.4904 24.7164L20.3064 26.1324ZM20.9837 27.0164L22.917 25.2724L23.4357 24.5644L22.7277 25.0831L20.9837 27.0164ZM21.8677 27.6938L23.2837 25.5098L23.601 24.6924L23.0517 25.3764L21.8677 27.6938ZM22.897 28.1204L23.6984 25.6431L23.7944 24.7724L23.441 25.5751L22.897 28.1204ZM24.001 28.2658L24.1344 25.6658L24.001 24.7991L23.8677 25.6658L24.001 28.2658ZM25.105 28.1204L24.561 25.5751L24.2077 24.7724L24.3037 25.6431L25.105 28.1204ZM26.1344 27.6938L24.9504 25.3764L24.401 24.6924L24.7184 25.5098L26.1344 27.6938ZM27.0184 27.0164L25.2744 25.0831L24.5664 24.5644L25.085 25.2724L27.0184 27.0164ZM27.6957 26.1324L25.5117 24.7164L24.6944 24.3991L25.3784 24.9484L27.6957 26.1324ZM28.1224 25.1031L25.645 24.3018L24.7744 24.2058L25.577 24.5591L28.1224 25.1031ZM28.2677 23.9991L25.6677 23.8658L24.801 23.9991L25.6677 24.1324L28.2677 23.9991ZM28.1224 22.8951L25.577 23.4391L24.7744 23.7924L25.645 23.6964L28.1224 22.8951ZM27.6957 21.8658L25.3784 23.0498L24.6944 23.5991L25.5117 23.2818L27.6957 21.8658ZM27.0184 20.9818L25.085 22.7258L24.5664 23.4338L25.2744 22.9151L27.0184 20.9818ZM26.1344 20.3044L24.7184 22.4884L24.401 23.3058L24.9504 22.6218L26.1344 20.3044ZM25.105 19.8778L24.3037 22.3551L24.2077 23.2258L24.561 22.4231L25.105 19.8778Z" fill="#6666B3"/>
<path d="M23.4151 19.8126C23.5624 19.8126 23.6818 19.6932 23.6818 19.546C23.6818 19.3987 23.5624 19.2793 23.4151 19.2793C23.2678 19.2793 23.1484 19.3987 23.1484 19.546C23.1484 19.6932 23.2678 19.8126 23.4151 19.8126Z" fill="#000080"/>
<path d="M22.2823 20.1173C22.4296 20.1173 22.549 19.9979 22.549 19.8507C22.549 19.7034 22.4296 19.584 22.2823 19.584C22.135 19.584 22.0156 19.7034 22.0156 19.8507C22.0156 19.9979 22.135 20.1173 22.2823 20.1173Z" fill="#000080"/>
<path d="M21.2667 20.7013C21.4139 20.7013 21.5333 20.5819 21.5333 20.4346C21.5333 20.2874 21.4139 20.168 21.2667 20.168C21.1194 20.168 21 20.2874 21 20.4346C21 20.5819 21.1194 20.7013 21.2667 20.7013Z" fill="#000080"/>
<path d="M20.4385 21.5314C20.5858 21.5314 20.7052 21.412 20.7052 21.2647C20.7052 21.1174 20.5858 20.998 20.4385 20.998C20.2913 20.998 20.1719 21.1174 20.1719 21.2647C20.1719 21.412 20.2913 21.5314 20.4385 21.5314Z" fill="#000080"/>
<path d="M19.8526 22.547C19.9999 22.547 20.1193 22.4276 20.1193 22.2803C20.1193 22.1331 19.9999 22.0137 19.8526 22.0137C19.7053 22.0137 19.5859 22.1331 19.5859 22.2803C19.5859 22.4276 19.7053 22.547 19.8526 22.547Z" fill="#000080"/>
<path d="M19.5479 23.6798C19.6952 23.6798 19.8146 23.5604 19.8146 23.4131C19.8146 23.2659 19.6952 23.1465 19.5479 23.1465C19.4006 23.1465 19.2812 23.2659 19.2812 23.4131C19.2812 23.5604 19.4006 23.6798 19.5479 23.6798Z" fill="#000080"/>
<path d="M19.5479 24.8536C19.6952 24.8536 19.8146 24.7343 19.8146 24.587C19.8146 24.4397 19.6952 24.3203 19.5479 24.3203C19.4006 24.3203 19.2812 24.4397 19.2812 24.587C19.2812 24.7343 19.4006 24.8536 19.5479 24.8536Z" fill="#000080"/>
<path d="M19.8526 25.9865C19.9999 25.9865 20.1193 25.8671 20.1193 25.7198C20.1193 25.5725 19.9999 25.4531 19.8526 25.4531C19.7053 25.4531 19.5859 25.5725 19.5859 25.7198C19.5859 25.8671 19.7053 25.9865 19.8526 25.9865Z" fill="#000080"/>
<path d="M20.4385 27.004C20.5858 27.004 20.7052 26.8846 20.7052 26.7374C20.7052 26.5901 20.5858 26.4707 20.4385 26.4707C20.2913 26.4707 20.1719 26.5901 20.1719 26.7374C20.1719 26.8846 20.2913 27.004 20.4385 27.004Z" fill="#000080"/>
<path d="M21.2667 27.8322C21.4139 27.8322 21.5333 27.7128 21.5333 27.5655C21.5333 27.4182 21.4139 27.2988 21.2667 27.2988C21.1194 27.2988 21 27.4182 21 27.5655C21 27.7128 21.1194 27.8322 21.2667 27.8322Z" fill="#000080"/>
<path d="M22.2823 28.4181C22.4296 28.4181 22.549 28.2987 22.549 28.1514C22.549 28.0042 22.4296 27.8848 22.2823 27.8848C22.135 27.8848 22.0156 28.0042 22.0156 28.1514C22.0156 28.2987 22.135 28.4181 22.2823 28.4181Z" fill="#000080"/>
<path d="M23.4151 28.7228C23.5624 28.7228 23.6818 28.6034 23.6818 28.4561C23.6818 28.3088 23.5624 28.1895 23.4151 28.1895C23.2678 28.1895 23.1484 28.3088 23.1484 28.4561C23.1484 28.6034 23.2678 28.7228 23.4151 28.7228Z" fill="#000080"/>
<path d="M24.587 28.7228C24.7343 28.7228 24.8536 28.6034 24.8536 28.4561C24.8536 28.3088 24.7343 28.1895 24.587 28.1895C24.4397 28.1895 24.3203 28.3088 24.3203 28.4561C24.3203 28.6034 24.4397 28.7228 24.587 28.7228Z" fill="#000080"/>
<path d="M25.7198 28.4181C25.8671 28.4181 25.9865 28.2987 25.9865 28.1514C25.9865 28.0042 25.8671 27.8848 25.7198 27.8848C25.5725 27.8848 25.4531 28.0042 25.4531 28.1514C25.4531 28.2987 25.5725 28.4181 25.7198 28.4181Z" fill="#000080"/>
<path d="M26.7354 27.8322C26.8827 27.8322 27.0021 27.7128 27.0021 27.5655C27.0021 27.4182 26.8827 27.2988 26.7354 27.2988C26.5881 27.2988 26.4688 27.4182 26.4688 27.5655C26.4688 27.7128 26.5881 27.8322 26.7354 27.8322Z" fill="#000080"/>
<path d="M27.5714 27.004C27.7186 27.004 27.838 26.8846 27.838 26.7374C27.838 26.5901 27.7186 26.4707 27.5714 26.4707C27.4241 26.4707 27.3047 26.5901 27.3047 26.7374C27.3047 26.8846 27.4241 27.004 27.5714 27.004Z" fill="#000080"/>
<path d="M28.1495 25.9865C28.2968 25.9865 28.4161 25.8671 28.4161 25.7198C28.4161 25.5725 28.2968 25.4531 28.1495 25.4531C28.0022 25.4531 27.8828 25.5725 27.8828 25.7198C27.8828 25.8671 28.0022 25.9865 28.1495 25.9865Z" fill="#000080"/>
<path d="M28.4542 24.8536C28.6014 24.8536 28.7208 24.7343 28.7208 24.587C28.7208 24.4397 28.6014 24.3203 28.4542 24.3203C28.3069 24.3203 28.1875 24.4397 28.1875 24.587C28.1875 24.7343 28.3069 24.8536 28.4542 24.8536Z" fill="#000080"/>
<path d="M28.4542 23.6798C28.6014 23.6798 28.7208 23.5604 28.7208 23.4131C28.7208 23.2659 28.6014 23.1465 28.4542 23.1465C28.3069 23.1465 28.1875 23.2659 28.1875 23.4131C28.1875 23.5604 28.3069 23.6798 28.4542 23.6798Z" fill="#000080"/>
<path d="M28.1495 22.547C28.2968 22.547 28.4161 22.4276 28.4161 22.2803C28.4161 22.1331 28.2968 22.0137 28.1495 22.0137C28.0022 22.0137 27.8828 22.1331 27.8828 22.2803C27.8828 22.4276 28.0022 22.547 28.1495 22.547Z" fill="#000080"/>
<path d="M27.5714 21.5314C27.7186 21.5314 27.838 21.412 27.838 21.2647C27.838 21.1174 27.7186 20.998 27.5714 20.998C27.4241 20.998 27.3047 21.1174 27.3047 21.2647C27.3047 21.412 27.4241 21.5314 27.5714 21.5314Z" fill="#000080"/>
<path d="M26.7354 20.7013C26.8827 20.7013 27.0021 20.5819 27.0021 20.4346C27.0021 20.2874 26.8827 20.168 26.7354 20.168C26.5881 20.168 26.4688 20.2874 26.4688 20.4346C26.4688 20.5819 26.5881 20.7013 26.7354 20.7013Z" fill="#000080"/>
<path d="M25.7198 20.1173C25.8671 20.1173 25.9865 19.9979 25.9865 19.8507C25.9865 19.7034 25.8671 19.584 25.7198 19.584C25.5725 19.584 25.4531 19.7034 25.4531 19.8507C25.4531 19.9979 25.5725 20.1173 25.7198 20.1173Z" fill="#000080"/>
<path d="M24.587 19.8126C24.7343 19.8126 24.8536 19.6932 24.8536 19.546C24.8536 19.3987 24.7343 19.2793 24.587 19.2793C24.4397 19.2793 24.3203 19.3987 24.3203 19.546C24.3203 19.6932 24.4397 19.8126 24.587 19.8126Z" fill="#000080"/>
<path d="M24.0047 25.2008C24.6674 25.2008 25.2047 24.6635 25.2047 24.0008C25.2047 23.338 24.6674 22.8008 24.0047 22.8008C23.3419 22.8008 22.8047 23.338 22.8047 24.0008C22.8047 24.6635 23.3419 25.2008 24.0047 25.2008Z" fill="#000080"/>
</g>
<defs>
<clipPath id="clip0_6050_5532">
<rect width="48" height="48" fill="white"/>
</clipPath>
</defs>
</svg>
