<svg width="48" height="48" viewBox="0 0 48 48" fill="none" xmlns="http://www.w3.org/2000/svg">
<g clip-path="url(#clip0_6050_5525)">
<path d="M42.6667 6.66602H5.33333C3.91885 6.66602 2.56229 7.22792 1.5621 8.22811C0.561903 9.22831 0 10.5849 0 11.9993L0 23.9993H48V11.9993C48 10.5849 47.4381 9.22831 46.4379 8.22811C45.4377 7.22792 44.0812 6.66602 42.6667 6.66602Z" fill="#005BBB"/>
<path d="M48 36C48 37.4145 47.4381 38.771 46.4379 39.7712C45.4377 40.7714 44.0812 41.3333 42.6667 41.3333H5.33333C3.91885 41.3333 2.56229 40.7714 1.5621 39.7712C0.561903 38.771 0 37.4145 0 36V24H48V36Z" fill="#FFD500"/>
</g>
<defs>
<clipPath id="clip0_6050_5525">
<rect width="48" height="48" fill="white"/>
</clipPath>
</defs>
</svg>
